<?xml version="1.0" encoding="utf-8"?>
<!-- Generator: Adobe Illustrator 16.2.0, SVG Export Plug-In . SVG Version: 6.00 Build 0)  -->
<!DOCTYPE svg PUBLIC "-//W3C//DTD SVG 1.1//EN" "http://www.w3.org/Graphics/SVG/1.1/DTD/svg11.dtd">
<svg version="1.1" id="Layer_1" xmlns="http://www.w3.org/2000/svg" xmlns:xlink="http://www.w3.org/1999/xlink" x="0px" y="0px"
	 width="960px" height="560px" viewBox="0 0 960 560" enable-background="new 0 0 960 560" xml:space="preserve">
<g>
	<polygon fill="#6CC7DD" points="593.989,289.65 593.989,289.914 483.226,368.173 323.364,479.46 322.671,370.792 417.854,304.538 
		418.55,411.967 578.408,300.68 	"/>
	<polygon fill="#1CA4C9" points="594.681,180.274 594.396,222.908 593.989,289.65 578.408,300.68 418.55,411.967 417.854,304.538 
		483.395,258.905 594.396,180.426 	"/>
	<polygon fill="#1CA4C9" points="637.329,127.107 524.725,206.672 524.725,97.485 636.591,18.404 	"/>
	<polygon fill="#6CC7DD" points="524.725,97.485 524.725,206.672 414.047,284.854 413.802,242.219 413.924,175.814 	"/>
	<polygon fill="#6CC7DD" points="528.776,354.228 528.776,463.414 418.1,541.596 417.854,498.961 417.976,432.556 	"/>
</g>
</svg>
