<svg version="1.1" id="Layer_1" xmlns="http://www.w3.org/2000/svg" xmlns:xlink="http://www.w3.org/1999/xlink" x="0px" y="0px"
	 width="612px" height="792px" viewBox="0 0 612 792" enable-background="new 0 0 612 792" xml:space="preserve">
<path d="M546.429,133.714h-65.571V62.679c0-9.016-7.377-16.393-16.394-16.393h-54.643c-9.016,0-16.393,7.377-16.393,16.393v71.036
	H218.571V62.679c0-9.016-7.376-16.393-16.393-16.393h-54.643c-9.016,0-16.393,7.377-16.393,16.393v71.036H65.571
	C29.371,133.714,0,163.085,0,199.286v480.857c0,36.201,29.371,65.571,65.571,65.571h480.857c36.201,0,65.571-29.37,65.571-65.571
	V199.286C612,163.085,582.63,133.714,546.429,133.714z M538.232,680.143H73.768c-4.508,0-8.197-3.688-8.197-8.196V264.857h480.857
	v407.089C546.429,676.454,542.74,680.143,538.232,680.143z"/>
<rect x="191.25" y="298.5" fill="none" width="229.5" height="344"/>
<text transform="matrix(1 0 0 1 191.25 582.4961)" font-family="'MyriadPro-Bold'" font-size="400">1</text>
</svg>